<svg width="206" height="162" viewBox="0 0 206 162" fill="none" xmlns="http://www.w3.org/2000/svg">
<path d="M206 30.375V131.625H12.875V111.375H0V20.25H180.25V30.375H206ZM154.5 30.375C154.5 31.7988 154.835 33.1172 155.506 34.3301C156.176 35.543 157.082 36.5977 158.222 37.4941C159.362 38.3906 160.736 39.1289 162.346 39.709C163.955 40.2891 165.632 40.5527 167.375 40.5V30.375H154.5ZM12.875 40.5C14.6855 40.5 16.362 40.2363 17.9043 39.709C19.4466 39.1816 20.7878 38.4697 21.9277 37.5732C23.0677 36.6768 24.0065 35.5957 24.7441 34.3301C25.4818 33.0645 25.8171 31.7461 25.75 30.375H12.875V40.5ZM12.875 81C16.429 81 19.7484 81.5273 22.833 82.582C25.9176 83.6367 28.667 85.0869 31.0811 86.9326C33.4951 88.7783 35.3392 90.9141 36.6133 93.3398C37.8874 95.7656 38.5579 98.4023 38.625 101.25H141.625C141.625 98.4551 142.296 95.8447 143.637 93.4189C144.978 90.9932 146.822 88.8311 149.169 86.9326C151.516 85.0342 154.232 83.584 157.316 82.582C160.401 81.5801 163.754 81.0527 167.375 81V50.625C163.821 50.625 160.502 50.0977 157.417 49.043C154.332 47.9883 151.583 46.5381 149.169 44.6924C146.755 42.8467 144.911 40.7109 143.637 38.2852C142.363 35.8594 141.692 33.2227 141.625 30.375H38.625C38.625 33.1699 37.9544 35.7803 36.6133 38.2061C35.2721 40.6318 33.4281 42.7939 31.0811 44.6924C28.734 46.5908 26.0182 48.041 22.9336 49.043C19.849 50.0449 16.4961 50.5723 12.875 50.625V81ZM167.375 91.125C165.564 91.125 163.888 91.3887 162.346 91.916C160.803 92.4434 159.462 93.1553 158.322 94.0518C157.182 94.9482 156.243 96.0293 155.506 97.2949C154.768 98.5605 154.433 99.8789 154.5 101.25H167.375V91.125ZM12.875 101.25H25.75C25.75 99.8262 25.4147 98.5078 24.7441 97.2949C24.0736 96.082 23.1683 95.0273 22.0283 94.1309C20.8883 93.2344 19.5137 92.4961 17.9043 91.916C16.2949 91.3359 14.6185 91.0723 12.875 91.125V101.25ZM193.125 40.5H180.25V111.375H25.75V121.5H193.125V40.5ZM45.0625 70.875C43.319 70.875 41.8102 70.374 40.5361 69.3721C39.262 68.3701 38.625 67.1836 38.625 65.8125C38.625 64.4414 39.262 63.2549 40.5361 62.2529C41.8102 61.251 43.319 60.75 45.0625 60.75C46.806 60.75 48.3148 61.251 49.5889 62.2529C50.863 63.2549 51.5 64.4414 51.5 65.8125C51.5 67.1836 50.863 68.3701 49.5889 69.3721C48.3148 70.374 46.806 70.875 45.0625 70.875ZM135.188 70.875C133.444 70.875 131.935 70.374 130.661 69.3721C129.387 68.3701 128.75 67.1836 128.75 65.8125C128.75 64.4414 129.387 63.2549 130.661 62.2529C131.935 61.251 133.444 60.75 135.188 60.75C136.931 60.75 138.44 61.251 139.714 62.2529C140.988 63.2549 141.625 64.4414 141.625 65.8125C141.625 67.1836 140.988 68.3701 139.714 69.3721C138.44 70.374 136.931 70.875 135.188 70.875ZM90.125 91.125C86.571 91.125 83.2516 90.5977 80.167 89.543C77.0824 88.4883 74.333 87.0381 71.9189 85.1924C69.5049 83.3467 67.6608 81.2109 66.3867 78.7852C65.1126 76.3594 64.4421 73.7227 64.375 70.875V60.75C64.375 57.9551 65.0456 55.3447 66.3867 52.9189C67.7279 50.4932 69.5719 48.3311 71.9189 46.4326C74.266 44.5342 76.9818 43.084 80.0664 42.082C83.151 41.0801 86.5039 40.5527 90.125 40.5C93.679 40.5 96.9984 41.0273 100.083 42.082C103.168 43.1367 105.917 44.5869 108.331 46.4326C110.745 48.2783 112.589 50.4141 113.863 52.8398C115.137 55.2656 115.808 57.9023 115.875 60.75V70.875C115.875 73.6699 115.204 76.2803 113.863 78.7061C112.522 81.1318 110.678 83.2939 108.331 85.1924C105.984 87.0908 103.268 88.541 100.184 89.543C97.099 90.5449 93.7461 91.0723 90.125 91.125ZM77.25 70.875C77.25 72.2988 77.5853 73.6172 78.2559 74.8301C78.9264 76.043 79.8317 77.0977 80.9717 77.9941C82.1117 78.8906 83.4863 79.6289 85.0957 80.209C86.7051 80.7891 88.3815 81.0527 90.125 81C91.9355 81 93.612 80.7363 95.1543 80.209C96.6966 79.6816 98.0378 78.9697 99.1777 78.0732C100.318 77.1768 101.257 76.0957 101.994 74.8301C102.732 73.5645 103.067 72.2461 103 70.875V60.75C103 59.3262 102.665 58.0078 101.994 56.7949C101.324 55.582 100.418 54.5273 99.2783 53.6309C98.1383 52.7344 96.7637 51.9961 95.1543 51.416C93.5449 50.8359 91.8685 50.5723 90.125 50.625C88.3145 50.625 86.638 50.8887 85.0957 51.416C83.5534 51.9434 82.2122 52.6553 81.0723 53.5518C79.9323 54.4482 78.9935 55.5293 78.2559 56.7949C77.5182 58.0605 77.1829 59.3789 77.25 60.75V70.875Z" fill="#323232"/>
</svg>
